<svg xmlns="http://www.w3.org/2000/svg">
    <symbol id="vk-icon" viewBox="0 0 30 30">
       <path d="M15,3C8.373,3,3,8.373,3,15c0,6.627,5.373,12,12,12s12-5.373,12-12C27,8.373,21.627,3,15,3z M21.361,18.967l-1.868,0.026 c0,0-0.403,0.079-0.93-0.285c-0.699-0.48-1.358-1.729-1.872-1.567c-0.521,0.166-0.505,1.29-0.505,1.29s0.004,0.198-0.115,0.327 c-0.129,0.139-0.382,0.125-0.382,0.125h-0.837c0,0-1.846,0.153-3.473-1.543c-1.772-1.849-3.338-5.498-3.338-5.498 s-0.092-0.23,0.006-0.348c0.111-0.13,0.41-0.134,0.41-0.134l2-0.01c0,0,0.188,0.033,0.324,0.133 c0.111,0.082,0.174,0.236,0.174,0.236s0.323,0.819,0.752,1.561c0.836,1.446,1.224,1.763,1.508,1.608 c0.414-0.226,0.29-2.044,0.29-2.044s0.008-0.66-0.208-0.954c-0.168-0.229-0.484-0.297-0.622-0.314 c-0.113-0.015,0.071-0.277,0.311-0.395c0.36-0.176,0.996-0.186,1.747-0.179c0.585,0.006,0.754,0.042,0.982,0.098 c0.69,0.167,0.456,0.811,0.456,2.356c0,0.495-0.089,1.191,0.267,1.42c0.154,0.099,0.529,0.015,1.464-1.579 c0.445-0.756,0.778-1.644,0.778-1.644s0.073-0.158,0.186-0.226c0.116-0.07,0.272-0.048,0.272-0.048l2.105-0.013 c0,0,0.632-0.076,0.735,0.211c0.108,0.3-0.236,1.001-1.096,2.148c-1.412,1.884-1.569,1.709-0.396,2.799 c1.12,1.041,1.351,1.547,1.39,1.611C22.339,18.906,21.361,18.967,21.361,18.967z"/>
    </symbol>
    <symbol id="facebook-icon" viewBox="0 0 30 30">
       <path d="M24,4H6C4.895,4,4,4.895,4,6v18c0,1.105,0.895,2,2,2h10v-9h-3v-3h3v-1.611C16,9.339,17.486,8,20.021,8 c1.214,0,1.856,0.09,2.16,0.131V11h-1.729C19.376,11,19,11.568,19,12.718V14h3.154l-0.428,3H19v9h5c1.105,0,2-0.895,2-2V6 C26,4.895,25.104,4,24,4z"/>
    <symbol id="youtube-icon" viewBox="0 0 30 30">
       <path d="M 15 4 C 10.814 4 5.3808594 5.0488281 5.3808594 5.0488281 L 5.3671875 5.0644531 C 3.4606632 5.3693645 2 7.0076245 2 9 L 2 15 L 2 15.001953 L 2 21 L 2 21.001953 A 4 4 0 0 0 5.3769531 24.945312 L 5.3808594 24.951172 C 5.3808594 24.951172 10.814 26.001953 15 26.001953 C 19.186 26.001953 24.619141 24.951172 24.619141 24.951172 L 24.621094 24.949219 A 4 4 0 0 0 28 21.001953 L 28 21 L 28 15.001953 L 28 15 L 28 9 A 4 4 0 0 0 24.623047 5.0546875 L 24.619141 5.0488281 C 24.619141 5.0488281 19.186 4 15 4 z M 12 10.398438 L 20 15 L 12 19.601562 L 12 10.398438 z"/>
    </symbol>
    <symbol id="instagram-icon" viewBox="0 0 30 30">
       <path d="M 9.9980469 3 C 6.1390469 3 3 6.1419531 3 10.001953 L 3 20.001953 C 3 23.860953 6.1419531 27 10.001953 27 L 20.001953 27 C 23.860953 27 27 23.858047 27 19.998047 L 27 9.9980469 C 27 6.1390469 23.858047 3 19.998047 3 L 9.9980469 3 z M 22 7 C 22.552 7 23 7.448 23 8 C 23 8.552 22.552 9 22 9 C 21.448 9 21 8.552 21 8 C 21 7.448 21.448 7 22 7 z M 15 9 C 18.309 9 21 11.691 21 15 C 21 18.309 18.309 21 15 21 C 11.691 21 9 18.309 9 15 C 9 11.691 11.691 9 15 9 z M 15 11 A 4 4 0 0 0 11 15 A 4 4 0 0 0 15 19 A 4 4 0 0 0 19 15 A 4 4 0 0 0 15 11 z"/>
    </symbol>
    <symbol id="telegram-icon" viewBox="0 0 50 50">
       <path d="M25,8c9.389,0,17,7.611,17,17s-7.611,17-17,17S8,34.389,8,25S15.611,8,25,8z M30.864,31.93	c0.312-0.959,1.778-10.521,1.958-12.405c0.055-0.571-0.126-0.95-0.478-1.119c-0.427-0.205-1.06-0.103-1.794,0.162	c-1.007,0.363-13.876,5.827-14.62,6.144c-0.704,0.3-1.372,0.626-1.372,1.1c0,0.333,0.198,0.52,0.742,0.714	c0.566,0.202,1.992,0.634,2.834,0.866c0.811,0.224,1.734,0.03,2.251-0.292c0.548-0.341,6.878-4.576,7.332-4.947	c0.454-0.371,0.816,0.104,0.445,0.476c-0.371,0.371-4.715,4.588-5.289,5.172c-0.696,0.709-0.202,1.443,0.265,1.738	c0.533,0.336,4.365,2.906,4.943,3.319c0.578,0.412,1.162,0.599,1.699,0.599C30.316,33.456,30.597,32.749,30.864,31.93z"/>
    </symbol>
    <symbol id="twitter-icon" viewBox="0 0 30 30">
       <path d="M15,3C8.373,3,3,8.373,3,15c0,6.627,5.373,12,12,12s12-5.373,12-12C27,8.373,21.627,3,15,3z M21.464,12.535 c0.006,0.133,0.009,0.265,0.009,0.397c0,4.068-3.095,8.756-8.756,8.756c-1.739,0-3.356-0.509-4.717-1.383 c0.241,0.029,0.486,0.042,0.735,0.042c1.443,0,2.769-0.491,3.821-1.318c-1.347-0.025-2.484-0.915-2.875-2.137 c0.188,0.036,0.381,0.055,0.579,0.055c0.281,0,0.554-0.038,0.811-0.108c-1.408-0.282-2.469-1.526-2.469-3.017 c0-0.013,0-0.026,0-0.039c0.415,0.231,0.889,0.369,1.394,0.385c-0.825-0.551-1.369-1.494-1.369-2.561 c0-0.565,0.151-1.094,0.416-1.547c1.518,1.862,3.786,3.088,6.343,3.216c-0.052-0.225-0.079-0.46-0.079-0.701 c0-1.699,1.378-3.078,3.077-3.078c0.885,0,1.685,0.374,2.246,0.972c0.701-0.139,1.36-0.394,1.955-0.747 c-0.23,0.719-0.718,1.321-1.354,1.703c0.622-0.074,1.215-0.239,1.768-0.484C22.588,11.559,22.067,12.1,21.464,12.535z"/>
    </symbol>
    <symbol id="class-icon" viewBox="0 0 30 30">
       <path d="M 6 4 C 4.895 4 4 4.895 4 6 L 4 24 C 4 25.105 4.895 26 6 26 L 24 26 C 25.105 26 26 25.105 26 24 L 26 6 C 26 4.895 25.105 4 24 4 L 6 4 z M 14.998047 7 C 17.325047 7 19.216797 8.89275 19.216797 11.21875 C 19.216797 13.54475 17.324047 15.433594 14.998047 15.433594 C 12.672047 15.433594 10.78125 13.541797 10.78125 11.216797 C 10.78125 8.8907969 12.672047 6.999 14.998047 7 z M 14.998047 9.5195312 C 14.063047 9.5195312 13.302734 10.280797 13.302734 11.216797 C 13.302734 12.151797 14.063047 12.912109 14.998047 12.912109 C 15.934047 12.912109 16.695312 12.151797 16.695312 11.216797 C 16.695312 10.280797 15.934047 9.5195312 14.998047 9.5195312 z M 11.794922 15.46875 C 11.948937 15.493813 12.099734 15.550172 12.240234 15.638672 C 13.917234 16.694672 16.080766 16.694672 17.759766 15.638672 C 18.320766 15.284672 19.061062 15.453625 19.414062 16.015625 C 19.766063 16.577625 19.599109 17.320828 19.037109 17.673828 C 18.296109 18.138828 17.49025 18.468203 16.65625 18.658203 L 18.949219 20.951172 C 19.418219 21.419172 19.418219 22.179438 18.949219 22.648438 C 18.480219 23.117438 17.720953 23.117437 17.251953 22.648438 L 15 20.396484 L 12.748047 22.648438 C 12.513047 22.883437 12.205438 23 11.898438 23 C 11.591437 23 11.285781 22.883437 11.050781 22.648438 C 10.581781 22.180438 10.580828 21.418219 11.048828 20.949219 L 13.341797 18.658203 C 12.506797 18.468203 11.701937 18.136875 10.960938 17.671875 C 10.399938 17.318875 10.231938 16.577625 10.585938 16.015625 C 10.850687 15.594125 11.332875 15.393562 11.794922 15.46875 z"/>
    </symbol>
</svg>